HIERARCHY
ROOT Hips
{
    OFFSET 0.000000 0.000000 0.000000
    CHANNELS 6 Xposition Yposition Zposition Zrotation Xrotation Yrotation
    JOINT Spine
    {
        OFFSET -0.000000 7.472806 0.000000
        CHANNELS 3 Zrotation Xrotation Yrotation
        JOINT Spine1
        {
            OFFSET -0.000000 20.861324 0.000000
            CHANNELS 3 Zrotation Xrotation Yrotation
            JOINT Neck
            {
                OFFSET -0.000000 20.775652 1.888696
                CHANNELS 3 Zrotation Xrotation Yrotation
                JOINT Head
                {
                    OFFSET -0.000000 12.758449 -1.822636
                    CHANNELS 3 Zrotation Xrotation Yrotation
                    End Site
                    {
                        OFFSET -0.000000 22.782944 0.000000
                    }
                }
            }
            JOINT LeftShoulder
            {
                OFFSET 3.666378 18.154961 -0.070414
                CHANNELS 3 Zrotation Xrotation Yrotation
                JOINT LeftArm
                {
                    OFFSET 12.961472 0.000000 0.000000
                    CHANNELS 3 Zrotation Xrotation Yrotation
                    JOINT LeftForeArm
                    {
                        OFFSET 24.623642 0.000000 0.000000
                        CHANNELS 3 Zrotation Xrotation Yrotation
                        JOINT LeftHand
                        {
                            OFFSET 23.136553 0.000000 0.000000
                            CHANNELS 3 Zrotation Xrotation Yrotation
                            End Site
                            {
                                OFFSET 13.669766 0.000000 0.000000
                            }
                        }
                    }
                }
            }
            JOINT RightShoulder
            {
                OFFSET -3.623027 18.154961 -0.070414
                CHANNELS 3 Zrotation Xrotation Yrotation
                JOINT RightArm
                {
                    OFFSET -12.961472 0.000000 0.000000
                    CHANNELS 3 Zrotation Xrotation Yrotation
                    JOINT RightForeArm
                    {
                        OFFSET -24.623642 0.000000 0.000000
                        CHANNELS 3 Zrotation Xrotation Yrotation
                        JOINT RightHand
                        {
                            OFFSET -23.136553 0.000000 0.000000
                            CHANNELS 3 Zrotation Xrotation Yrotation
                            End Site
                            {
                                OFFSET -13.669766 0.000000 0.000000
                            }
                        }
                    }
                }
            }
        }
    }
    JOINT LeftUpLeg
    {
        OFFSET 9.113177 0.000000 0.000000
        CHANNELS 3 Zrotation Xrotation Yrotation
        JOINT LeftLeg
        {
            OFFSET -0.000000 -45.736031 0.000000
            CHANNELS 3 Zrotation Xrotation Yrotation
            JOINT LeftFoot
            {
                OFFSET -0.000000 -34.703285 0.000000
                CHANNELS 3 Zrotation Xrotation Yrotation
                JOINT LeftToeBase
                {
                    OFFSET -0.000000 -5.923565 13.669766
                    CHANNELS 3 Zrotation Xrotation Yrotation
                    End Site
                    {
                        OFFSET -0.000000 0.000000 3.645271
                    }
                }
            }
        }
    }
    JOINT RightUpLeg
    {
        OFFSET -9.113177 0.000000 0.000000
        CHANNELS 3 Zrotation Xrotation Yrotation
        JOINT RightLeg
        {
            OFFSET -0.000000 -45.736031 0.000000
            CHANNELS 3 Zrotation Xrotation Yrotation
            JOINT RightFoot
            {
                OFFSET -0.000000 -34.703285 0.000000
                CHANNELS 3 Zrotation Xrotation Yrotation
                JOINT RightToeBase
                {
                    OFFSET -0.000000 -5.923565 13.669766
                    CHANNELS 3 Zrotation Xrotation Yrotation
                    End Site
                    {
                        OFFSET -0.000000 0.000000 3.645271
                    }
                }
            }
        }
    }
}
MOTION
Frames:    4
Frame Time:    0.008333
-3.045403    87.408768    12.715727    0.100100    1.644762    90.897285    0.986096    -1.533086    -4.017388    -6.369436    1.837981    -3.928307    6.445116    14.229837    -3.728142    -1.876296    -1.287875    -4.291418    7.747550    11.120445    2.595399    -61.417274    48.558327    -19.833931    1.874925    -9.303466    -17.525009    0.894720    -8.983471    4.529882    -1.027095    14.818191    -27.851278    51.651985    22.609520    -21.641207    -0.295315    15.789027    -1.050853    17.138674    14.007337    -12.170498    1.969399    8.041307    1.640131    -5.728580    -4.392043    -2.390505    4.049909    -1.866521    3.582260    0.000000    0.000000    0.000000    -5.552396    9.421577    0.738791    6.256559    -4.804633    2.639488    1.037275    -2.489609    -8.027692    0.000000    0.000000    0.000000    
-3.043270    87.409065    12.715147    0.105317    1.641383    90.891258    0.988800    -1.522783    -4.014575    -6.373833    1.828704    -3.925884    6.450452    14.218154    -3.735505    -1.877383    -1.275061    -4.299866    7.749853    11.117181    2.602083    -61.417614    48.555824    -19.829628    1.878055    -9.299187    -17.522943    0.888643    -8.978977    4.530860    -1.040501    14.807744    -27.837713    51.677204    22.609291    -21.671247    -0.332956    15.795926    -1.028961    17.153233    14.010156    -12.186234    1.972997    8.047795    1.651912    -5.730844    -4.395102    -2.331729    4.046091    -1.866513    3.510953    0.000000    0.000000    0.000000    -5.544326    9.421061    0.741293    6.244514    -4.793160    2.623044    0.987950    -2.466206    -8.008753    0.000000    0.000000    0.000000    
-3.041564    87.411270    12.724066    0.121046    1.627154    90.865112    0.980121    -1.499101    -4.002435    -6.353455    1.818609    -3.914313    6.442544    14.207553    -3.746027    -1.859020    -1.261397    -4.308268    7.752000    11.117395    2.604625    -61.420799    48.554432    -19.816589    1.885489    -9.302674    -17.538370    0.884152    -8.981136    4.547184    -1.026985    14.813024    -27.871014    51.632622    22.621796    -21.608011    -0.308636    15.813820    -1.057828    17.148590    14.026470    -12.202096    1.996120    8.067541    1.690745    -5.746024    -4.397650    -2.301309    4.033618    -1.861436    3.471253    0.000000    0.000000    0.000000    -5.520848    9.429656    0.772759    6.227812    -4.786103    2.621813    1.005924    -2.463186    -8.015963    0.000000    0.000000    0.000000    
-3.038565    87.407867    12.707541    0.104119    1.644917    90.893829    0.992645    -1.518804    -4.013410    -6.385838    1.812423    -3.925448    6.437429    14.194994    -3.755289    -1.847957    -1.240434    -4.316542    7.752625    11.122073    2.598595    -61.420971    48.546089    -19.813395    1.887878    -9.288968    -17.541166    0.878490    -8.967061    4.569007    -1.019586    14.822399    -27.906662    51.608200    22.628075    -21.566727    -0.323657    15.821650    -1.063060    17.158262    14.030242    -12.221984    1.962978    8.048566    1.644861    -5.725755    -4.387839    -2.379100    4.046938    -1.872893    3.565441    0.000000    0.000000    0.000000    -5.553799    9.425220    0.733694    6.247191    -4.793980    2.639539    1.047374    -2.506782    -8.019917    0.000000    0.000000    0.000000    
